<svg width="" height="" viewBox="0 0 32 32" fill="none" xmlns="http://www.w3.org/2000/svg">
<path d="M4.69042 13.7414C4.17309 12.3094 3.91442 11.5934 4.02376 11.1347C4.14509 10.6321 4.50242 10.2414 4.95842 10.1107C5.37576 9.99075 6.02509 10.2801 7.32242 10.8574C8.46909 11.3667 9.04242 11.6214 9.58242 11.6081C10.1771 11.5921 10.7478 11.3547 11.2024 10.9321C11.6158 10.5494 11.8918 9.94008 12.4451 8.72141L13.6651 6.03341C14.6838 3.78941 15.1931 2.66675 15.9998 2.66675C16.8064 2.66675 17.3158 3.78941 18.3344 6.03341L19.5544 8.72141C20.1078 9.94008 20.3851 10.5494 20.7971 10.9321C21.2518 11.3534 21.8238 11.5921 22.4171 11.6081C22.9558 11.6214 23.5304 11.3667 24.6771 10.8561C25.9758 10.2801 26.6238 9.99075 27.0411 10.1107C27.4971 10.2414 27.8544 10.6321 27.9744 11.1347C28.0851 11.5934 27.8264 12.3081 27.3078 13.7414L25.0851 19.8961C24.1331 22.5294 23.6584 23.8454 22.6624 24.5894C21.6664 25.3334 20.3798 25.3334 17.8078 25.3334H14.1918C11.6184 25.3334 10.3331 25.3334 9.33842 24.5894C8.34242 23.8454 7.86642 22.5294 6.91442 19.8961L4.69042 13.7414ZM9.33309 29.3334H22.6664H9.33309Z" fill="url(#paint0_linear_4796_8632)"/>
<path d="M9.33309 29.3334H22.6664M4.69042 13.7414C4.17309 12.3094 3.91442 11.5934 4.02376 11.1347C4.14509 10.6321 4.50242 10.2414 4.95842 10.1107C5.37576 9.99075 6.02509 10.2801 7.32242 10.8574C8.46909 11.3667 9.04242 11.6214 9.58242 11.6081C10.1771 11.5921 10.7478 11.3547 11.2024 10.9321C11.6158 10.5494 11.8918 9.94008 12.4451 8.72141L13.6651 6.03341C14.6838 3.78941 15.1931 2.66675 15.9998 2.66675C16.8064 2.66675 17.3158 3.78941 18.3344 6.03341L19.5544 8.72141C20.1078 9.94008 20.3851 10.5494 20.7971 10.9321C21.2518 11.3534 21.8238 11.5921 22.4171 11.6081C22.9558 11.6214 23.5304 11.3667 24.6771 10.8561C25.9758 10.2801 26.6238 9.99075 27.0411 10.1107C27.4971 10.2414 27.8544 10.6321 27.9744 11.1347C28.0851 11.5934 27.8264 12.3081 27.3078 13.7414L25.0851 19.8961C24.1331 22.5294 23.6584 23.8454 22.6624 24.5894C21.6664 25.3334 20.3798 25.3334 17.8078 25.3334H14.1918C11.6184 25.3334 10.3331 25.3334 9.33842 24.5894C8.34242 23.8454 7.86642 22.5294 6.91442 19.8961L4.69042 13.7414Z" stroke="url(#paint1_linear_4796_8632)" stroke-width="1.875" stroke-linecap="round" stroke-linejoin="round"/>
<path d="M17.255 11.8182V22H15.1023V13.8615H15.0426L12.7109 15.3232V13.4141L15.2315 11.8182H17.255Z" fill="white"/>
<defs>
<linearGradient id="paint0_linear_4796_8632" x1="15.9993" y1="2.66675" x2="15.9993" y2="29.3334" gradientUnits="userSpaceOnUse">
<stop stop-color="#FFD900"/>
<stop offset="1" stop-color="#FF9500"/>
</linearGradient>
<linearGradient id="paint1_linear_4796_8632" x1="15.9993" y1="2.66675" x2="15.9993" y2="29.3334" gradientUnits="userSpaceOnUse">
<stop stop-color="#FFD900"/>
<stop offset="1" stop-color="#FF9500"/>
</linearGradient>
</defs>
</svg>
