<svg width="" height="" viewBox="0 0 32 32" fill="none" xmlns="http://www.w3.org/2000/svg">
<path d="M4.69042 13.7414C4.17309 12.3094 3.91442 11.5934 4.02376 11.1347C4.14509 10.6321 4.50242 10.2414 4.95842 10.1107C5.37576 9.99075 6.02509 10.2801 7.32242 10.8574C8.46909 11.3667 9.04242 11.6214 9.58242 11.6081C10.1771 11.5921 10.7478 11.3547 11.2024 10.9321C11.6158 10.5494 11.8918 9.94008 12.4451 8.72141L13.6651 6.03341C14.6838 3.78941 15.1931 2.66675 15.9998 2.66675C16.8064 2.66675 17.3158 3.78941 18.3344 6.03341L19.5544 8.72141C20.1078 9.94008 20.3851 10.5494 20.7971 10.9321C21.2518 11.3534 21.8238 11.5921 22.4171 11.6081C22.9558 11.6214 23.5304 11.3667 24.6771 10.8561C25.9758 10.2801 26.6238 9.99075 27.0411 10.1107C27.4971 10.2414 27.8544 10.6321 27.9744 11.1347C28.0851 11.5934 27.8264 12.3081 27.3078 13.7414L25.0851 19.8961C24.1331 22.5294 23.6584 23.8454 22.6624 24.5894C21.6664 25.3334 20.3798 25.3334 17.8078 25.3334H14.1918C11.6184 25.3334 10.3331 25.3334 9.33842 24.5894C8.34242 23.8454 7.86642 22.5294 6.91442 19.8961L4.69042 13.7414ZM9.33309 29.3334H22.6664H9.33309Z" fill="url(#paint0_linear_4796_8663)"/>
<path d="M9.33309 29.3334H22.6664M4.69042 13.7414C4.17309 12.3094 3.91442 11.5934 4.02376 11.1347C4.14509 10.6321 4.50242 10.2414 4.95842 10.1107C5.37576 9.99075 6.02509 10.2801 7.32242 10.8574C8.46909 11.3667 9.04242 11.6214 9.58242 11.6081C10.1771 11.5921 10.7478 11.3547 11.2024 10.9321C11.6158 10.5494 11.8918 9.94008 12.4451 8.72141L13.6651 6.03341C14.6838 3.78941 15.1931 2.66675 15.9998 2.66675C16.8064 2.66675 17.3158 3.78941 18.3344 6.03341L19.5544 8.72141C20.1078 9.94008 20.3851 10.5494 20.7971 10.9321C21.2518 11.3534 21.8238 11.5921 22.4171 11.6081C22.9558 11.6214 23.5304 11.3667 24.6771 10.8561C25.9758 10.2801 26.6238 9.99075 27.0411 10.1107C27.4971 10.2414 27.8544 10.6321 27.9744 11.1347C28.0851 11.5934 27.8264 12.3081 27.3078 13.7414L25.0851 19.8961C24.1331 22.5294 23.6584 23.8454 22.6624 24.5894C21.6664 25.3334 20.3798 25.3334 17.8078 25.3334H14.1918C11.6184 25.3334 10.3331 25.3334 9.33842 24.5894C8.34242 23.8454 7.86642 22.5294 6.91442 19.8961L4.69042 13.7414Z" stroke="url(#paint1_linear_4796_8663)" stroke-width="1.875" stroke-linecap="round" stroke-linejoin="round"/>
<path d="M12.8253 22V20.4489L16.4496 17.093C16.7578 16.7947 17.0163 16.5263 17.2251 16.2876C17.4373 16.049 17.598 15.8153 17.7074 15.5866C17.8168 15.3546 17.8714 15.1044 17.8714 14.8359C17.8714 14.5376 17.8035 14.2808 17.6676 14.0653C17.5317 13.8466 17.3461 13.6792 17.1108 13.5632C16.8755 13.4439 16.6087 13.3842 16.3104 13.3842C15.9988 13.3842 15.727 13.4472 15.495 13.5732C15.263 13.6991 15.084 13.8797 14.9581 14.1151C14.8321 14.3504 14.7692 14.6304 14.7692 14.9553H12.7259C12.7259 14.2891 12.8767 13.7107 13.1783 13.2202C13.4799 12.7296 13.9025 12.3501 14.446 12.0817C14.9896 11.8132 15.616 11.679 16.3253 11.679C17.0545 11.679 17.6892 11.8082 18.2294 12.0668C18.773 12.322 19.1955 12.6766 19.4972 13.1307C19.7988 13.5848 19.9496 14.1051 19.9496 14.6918C19.9496 15.0762 19.8733 15.4557 19.7209 15.8303C19.5717 16.2048 19.3049 16.6207 18.9205 17.0781C18.536 17.5322 17.9941 18.0774 17.2947 18.7138L15.8082 20.1705V20.2401H20.0838V22H12.8253Z" fill="white"/>
<defs>
<linearGradient id="paint0_linear_4796_8663" x1="15.9993" y1="2.66675" x2="15.9993" y2="29.3334" gradientUnits="userSpaceOnUse">
<stop stop-color="#E2E8F0"/>
<stop offset="1" stop-color="#64748B"/>
</linearGradient>
<linearGradient id="paint1_linear_4796_8663" x1="15.9993" y1="2.66675" x2="15.9993" y2="29.3334" gradientUnits="userSpaceOnUse">
<stop stop-color="#E2E8F0"/>
<stop offset="1" stop-color="#64748B"/>
</linearGradient>
</defs>
</svg>
